PathFileType	4	(X/Y/Z)	CPRIT_Patient3_R_KneeIso_Processed.TRC
DataRate	CameraRate	NumFrames	NumMarkers	Units	OrigDataRate	OrigDataStartFrame	OrigNumFrames
150.195058517555	150.195058517555	6	39	m	150.195058517555	1	       771
Frame#	Time	R.Heel			R.Midfoot.Superior			R.Midfoot.Lateral			R.Toe			L.Heel			L.Midfoot.Superior			L.Midfoot.Lateral			L.Toe			R.Shank.Superior			R.Shank.Inferior			R.Shank.Lateral			R.Shank.Posterior			L.Shank.Superior			L.Shank.Inferior			L.Shank.Posterior			L.Shank.Lateral			R.Patella			L.Patella			R.Thigh.Superior			R.Thigh.Lateral			R.Thigh.Inferior			L.Thigh.Superior			L.Thigh.Inferior			L.Thigh.Lateral			L.ASIS			R.ASIS			Sacral			R.Shoulder			L.Shoulder			C7			J.Notch			Sternum			Thoracic			L.Elbow			L.Wrist			R.Elbow			R.Wrist			R.PSIS			L.PSIS			
		X1	Y1	Z1	X2	Y2	Z2	X3	Y3	Z3	X4	Y4	Z4	X5	Y5	Z5	X6	Y6	Z6	X7	Y7	Z7	X8	Y8	Z8	X9	Y9	Z9	X10	Y10	Z10	X11	Y11	Z11	X12	Y12	Z12	X13	Y13	Z13	X14	Y14	Z14	X15	Y15	Z15	X16	Y16	Z16	X17	Y17	Z17	X18	Y18	Z18	X19	Y19	Z19	X20	Y20	Z20	X21	Y21	Z21	X22	Y22	Z22	X23	Y23	Z23	X24	Y24	Z24	X25	Y25	Z25	X26	Y26	Z26	X27	Y27	Z27	X28	Y28	Z28	X29	Y29	Z29	X30	Y30	Z30	X31	Y31	Z31	X32	Y32	Z32	X33	Y33	Z33	X34	Y34	Z34	X35	Y35	Z35	X36	Y36	Z36	X37	Y37	Z37	X38	Y38	Z38	X39	Y39	Z39	

1	0.000000000000	0.891098641937	0.065044928885	0.078244861807	1.044869856907	0.152586277326	0.091231700130	0.969728656680	0.071288476563	0.133577605768	1.169385301532	0.135478898098	0.096540356730	0.653581307234	0.042678161964	-0.090839315666	0.817860016704	0.096444520988	-0.136500663511	0.721089215203	0.032710404109	-0.161260503535	0.931660071612	0.056752626288	-0.163385875846	0.941611362966	0.406269002255	0.092364421432	0.961056737403	0.286400305954	0.096520456063	0.883513581239	0.327941971130	0.152135351166	0.806527593575	0.368570234583	0.092195837667	0.765211423919	0.365260276252	-0.161137359414	0.760025574925	0.237564649908	-0.145452721830	0.628103807770	0.338973827434	-0.145590618671	0.696007947311	0.276178957547	-0.198839762683	0.934760050238	0.529720623997	0.066744905642	0.790181390070	0.466474031805	-0.158492494195	0.854369017771	0.824114505492	0.086538455724	0.801088936390	0.734536122395	0.139191265062	0.902436534106	0.679362548670	0.054751490051	0.838575765705	0.775774617658	-0.181383060599	0.824061527584	0.611264741647	-0.168830550323	0.741308142945	0.704289715133	-0.234846900832	0.828000997118	0.935885666772	-0.172003954155	0.798894967552	0.955685955812	0.066395391443	0.625984265149	0.991173047933	-0.066505081644	0.757756956648	1.451515588968	0.080575333713	0.770902515734	1.463579141485	-0.232863095787	0.707793326610	1.480163617003	-0.077141495846	0.822861736621	1.376002245823	-0.077246800432	0.873901641742	1.197016458413	-0.075254619201	0.618370241291	1.325553352769	-0.084635929413	0.752474978116	1.184764530424	-0.412630292184	0.902751691980	0.987132502150	-0.451156595183	0.671350450415	1.181268144388	0.256678485572	0.736832932690	0.981732129934	0.383849909773	0.624689034355	0.993032154379	-0.029217129753	0.629536113706	0.990801800733	-0.104305229114	
2	0.006658008658	0.891237684544	0.064981700402	0.077982899195	1.044921019500	0.152645244243	0.091252024416	0.969779439874	0.071267058618	0.133440188084	1.169434007191	0.135645809003	0.096772506009	0.653583768498	0.042675337736	-0.090837427159	0.817860345456	0.096444543963	-0.136487817021	0.721088082583	0.032708022508	-0.161260841222	0.931666896832	0.056750863710	-0.163386424251	0.941560637693	0.406243648995	0.092372251966	0.961050454335	0.286380442437	0.096495831799	0.883397443139	0.327851663883	0.152008521420	0.806483403617	0.368472775055	0.091975832474	0.765191220752	0.365258844623	-0.161127416668	0.760007313966	0.237562479353	-0.145452432120	0.628080788424	0.338962693343	-0.145586915719	0.695990168917	0.276175374308	-0.198846615325	0.934697797923	0.529680006075	0.066785832411	0.790163549177	0.466471332979	-0.158479933151	0.854315214791	0.824062996551	0.086588226664	0.800975705376	0.734494676732	0.139197626188	0.902371744737	0.679339469913	0.054835669648	0.838558110046	0.775764912833	-0.181390995019	0.824029231169	0.611255971959	-0.168832561116	0.741292823518	0.704291063318	-0.234859403526	0.827997940536	0.935877059455	-0.171994919321	0.798882916591	0.955643068121	0.066433163478	0.625979523919	0.991175176848	-0.066499831836	0.757896106747	1.451507730208	0.080584060140	0.771085812799	1.463589359757	-0.232831858719	0.707944151018	1.480159313002	-0.077146145783	0.822996988108	1.375966373124	-0.077217581291	0.873976390592	1.196986698629	-0.075223389690	0.618467705699	1.325580951596	-0.084638330721	0.752570567083	1.184818719224	-0.412655739766	0.902774684778	0.987126801927	-0.451172857812	0.671411886024	1.181281474478	0.256690178021	0.736838799067	0.981727470179	0.383856706467	0.624682262977	0.993034901484	-0.029212646848	0.629532359542	0.990799783784	-0.104300158078	
3	0.013316017316	0.891340608088	0.064918174918	0.077722516719	1.044943047157	0.152691389197	0.091270549842	0.969793777112	0.071239261161	0.133302995924	1.169452278338	0.135789202146	0.097003780822	0.653586219837	0.042672444206	-0.090835517632	0.817860808432	0.096444085839	-0.136475877643	0.721086916044	0.032705718634	-0.161261214180	0.931675739172	0.056749943553	-0.163387323596	0.941511697878	0.406213721299	0.092377960843	0.961031388772	0.286353807997	0.096469505929	0.883275578793	0.327763764266	0.151881473242	0.806437040128	0.368385284684	0.091756613436	0.765171216293	0.365257235375	-0.161118191069	0.759989328796	0.237560271019	-0.145452081097	0.628057912922	0.338951452330	-0.145583777490	0.695972579303	0.276171747219	-0.198853810918	0.934651380376	0.529636842966	0.066824718613	0.790145920035	0.466468574101	-0.158467583352	0.854262799961	0.824012833792	0.086638689774	0.800866490621	0.734453950761	0.139204154876	0.902314239459	0.679319153597	0.054922342562	0.838540283254	0.775755254994	-0.181399167300	0.823997021149	0.611247232131	-0.168834621348	0.741277840584	0.704292257231	-0.234872598046	0.827994435998	0.935868626981	-0.171985707856	0.798870537621	0.955599967894	0.066471243477	0.625974337487	0.991176614835	-0.066495460841	0.758037380777	1.451499543901	0.080593570358	0.771273566362	1.463600011820	-0.232799038954	0.708098008370	1.480154870801	-0.077148440817	0.823134495826	1.375929581714	-0.077187125432	0.874051755626	1.196956347709	-0.075191061866	0.618566702205	1.325609574379	-0.084640542841	0.752669356090	1.184874487478	-0.412681119814	0.902798381955	0.987121267330	-0.451188979240	0.671473103894	1.181294983425	0.256702604519	0.736844554223	0.981722766413	0.383863535181	0.624674989412	0.993036903170	-0.029209047699	0.629528064052	0.990797256786	-0.104295903500	
4	0.019974025974	0.891398318383	0.064854797145	0.077467274916	1.044929162313	0.152721452398	0.091286610802	0.969763666933	0.071204010920	0.133167832664	1.169433053227	0.135902683774	0.097231033235	0.653588611604	0.042669529642	-0.090833635789	0.817861318007	0.096443238844	-0.136464909463	0.721085739996	0.032703518061	-0.161261619195	0.931686778844	0.056750002131	-0.163388715812	0.941464722291	0.406178413525	0.092380852741	0.960996496772	0.286319153797	0.096441365529	0.883147601625	0.327679608641	0.151755678098	0.806387880679	0.368310504625	0.091540893035	0.765151666762	0.365255491567	-0.161109968928	0.759971999234	0.237558070257	-0.145451670166	0.628035449095	0.338940275474	-0.145581405124	0.695955387545	0.276168118190	-0.198861327015	0.934623694311	0.529590723319	0.066860433626	0.790128769445	0.466465826625	-0.158455649889	0.854212784931	0.823964872035	0.086689091947	0.800763416396	0.734414518187	0.139210515004	0.902265977192	0.679302084249	0.055010460712	0.838522495034	0.775745775163	-0.181407664777	0.823965301727	0.611238643093	-0.168836804008	0.741263380194	0.704293269259	-0.234886498879	0.827990501588	0.935860492293	-0.171976572935	0.798858116542	0.955557057170	0.066509102192	0.625968789070	0.991177289692	-0.066492129662	0.758179702659	1.451491021974	0.080603931266	0.771464647838	1.463611018567	-0.232764766155	0.708253970303	1.480150391061	-0.077148275081	0.823273342966	1.375892154398	-0.077155460366	0.874127217157	1.196925645756	-0.075157805982	0.618666520969	1.325639126670	-0.084642494062	0.752770823540	1.184931460706	-0.412706202666	0.902822629619	0.987115967268	-0.451204808376	0.671533487766	1.181308576084	0.256715719709	0.736850115608	0.981718083748	0.383870292155	0.624667338808	0.993038079536	-0.029206471714	0.629523284060	0.990794233828	-0.104292630629	
5	0.026632034632	0.891401729389	0.064791983066	0.077220789232	1.044872601779	0.152732187129	0.091299516147	0.969681197733	0.071160247247	0.133036528424	1.169369244755	0.135979925702	0.097451059915	0.653590897425	0.042666642335	-0.090831825798	0.817861776647	0.096442094248	-0.136454935501	0.721084578288	0.032701443598	-0.161262051545	0.931700168160	0.056751158747	-0.163390738679	0.941419726031	0.406136882264	0.092380233010	0.960942638358	0.286275212914	0.096411321731	0.883013001719	0.327600469894	0.151632611201	0.806335170035	0.368251044722	0.091331333241	0.765132831910	0.365253653105	-0.161103007268	0.759955748118	0.237555911094	-0.145451145531	0.628013667670	0.338929338093	-0.145579960710	0.695938794416	0.276164530728	-0.198869132566	0.934617326678	0.529541216593	0.066891840326	0.790112366623	0.466463167321	-0.158444342263	0.854166218365	0.823919955391	0.086738622601	0.800668614888	0.734376946937	0.139216297119	0.902228824856	0.679288726771	0.055098899161	0.838504968665	0.775736602191	-0.181416596420	0.823934481528	0.611230324611	-0.168839196736	0.741249627387	0.704294075900	-0.234901124208	0.827986178583	0.935852778434	-0.171967800477	0.798845993456	0.955514743437	0.066546199313	0.625962996281	0.991177146275	-0.066489977839	0.758322016872	1.451482168507	0.080615204252	0.771657928088	1.463622308296	-0.232729185285	0.708411134579	1.480145982932	-0.077145583665	0.823412641099	1.375854378135	-0.077122612941	0.874202290688	1.196894850224	-0.075123816953	0.618766471707	1.325669510260	-0.084644113842	0.752874435712	1.184989264661	-0.412730762120	0.902847277126	0.987110966130	-0.451220204600	0.671592454238	1.181322160521	0.256729478914	0.736855404682	0.981713481527	0.383876880207	0.624659479022	0.993038372798	-0.029205035078	0.629518108678	0.990790734412	-0.104290482219	
6	0.033290043290	0.891341990034	0.064730110201	0.076986663738	1.044766790871	0.152720442174	0.091308563137	0.969538763608	0.071106952905	0.132910906316	1.169253915891	0.136014826787	0.097660661645	0.653593036001	0.042663828658	-0.090830124882	0.817862079556	0.096440736482	-0.136445935178	0.721083453407	0.032699514778	-0.161262504974	0.931716023672	0.056753509759	-0.163393519707	0.941376538489	0.406088263653	0.092375428009	0.960866644459	0.286220730816	0.096379319324	0.882871148127	0.327527520020	0.151513724009	0.806278022642	0.368209301277	0.091130486050	0.765114970722	0.365251754008	-0.161097521609	0.759941038443	0.237553812763	-0.145450389322	0.627992837885	0.338918815485	-0.145579555151	0.695922987324	0.276161029257	-0.198877186927	0.934634444021	0.529487884939	0.066917824498	0.790096978284	0.466460675167	-0.158433869837	0.854124167728	0.823878894464	0.086786421854	0.800584179846	0.734341785534	0.139221019229	0.902204498217	0.679279512086	0.055186469535	0.838487938978	0.775727859490	-0.181426092257	0.823904966321	0.611222392362	-0.168841901242	0.741236763572	0.704294658814	-0.234916495062	0.827981534680	0.935845605807	-0.171959706050	0.798834562878	0.955473433210	0.066581994466	0.625957114206	0.991176148923	-0.066489116436	0.758463308768	1.451473002909	0.080627441919	0.771852291590	1.463633819312	-0.232692457522	0.708568637976	1.480141760502	-0.077140342039	0.823551546007	1.375816539688	-0.077088613419	0.874276538580	1.196864234941	-0.075089316159	0.618865897396	1.325700622009	-0.084645334553	0.752979652404	1.185047532420	-0.412754579275	0.902872180193	0.987106321943	-0.451235041563	0.671649468667	1.181335649488	0.256743839285	0.736860349525	0.981709010740	0.383883212666	0.624651623837	0.993037750267	-0.029204824314	0.629512662672	0.990786783070	-0.104289571489	
